<?xml version="1.0" encoding="UTF-8" standalone="no"?>
<svg
   xmlns:dc="http://purl.org/dc/elements/1.1/"
   xmlns:cc="http://creativecommons.org/ns#"
   xmlns:rdf="http://www.w3.org/1999/02/22-rdf-syntax-ns#"
   xmlns:svg="http://www.w3.org/2000/svg"
   xmlns="http://www.w3.org/2000/svg"
   width="149"
   height="56"
   viewBox="0 0 149 56"
   version="1.1"
   id="svg4205">
  <metadata
     id="metadata4224">
    <rdf:RDF>
      <cc:Work
         rdf:about="">
        <dc:format>image/svg+xml</dc:format>
        <dc:type
           rdf:resource="http://purl.org/dc/dcmitype/StillImage" />
        <dc:title>Hoop Logo</dc:title>
      </cc:Work>
    </rdf:RDF>
  </metadata>
  <title
     id="title4207">Hoop Logo</title>
  <defs
     id="defs4211" />
  <g
     id="g4247"
     transform="matrix(1.7489804,0,0,1.7653776,-35.409924,-28.306047)">
    <path
       style="fill:#f45918;fill-rule:evenodd;stroke:none;stroke-width:1"
       id="Fill-1"
       d="m 36.827127,43.223641 -4.574145,0 0,-6.230962 -7.43285,0 0,6.230962 -4.574095,0 0,-18.126434 4.574095,0 0,7.363864 7.43285,0 0,-7.363864 4.574145,0 0,18.126434" />
    <path
       style="fill:#00a5e6;fill-rule:evenodd;stroke:none;stroke-width:1"
       id="Fill-2"
       d="m 67.130497,29.628815 c 0,7.624 -5.86072,13.594826 -13.72228,13.594826 -7.823725,0 -13.722281,-5.970826 -13.722281,-13.594826 0,-7.623433 5.898556,-13.594826 13.722281,-13.594826 7.86156,0 13.72228,5.971393 13.72228,13.594826 z m -4.574093,0 c 0,-4.935381 -3.81065,-9.063216 -9.148187,-9.063216 -5.33811,0 -9.148188,4.127835 -9.148188,9.063216 0,4.935382 3.810078,9.063217 9.148188,9.063217 5.337537,0 9.148187,-4.127835 9.148187,-9.063217 z" />
    <path
       style="fill:#ffc200;fill-rule:evenodd;stroke:none;stroke-width:1"
       id="Fill-3"
       d="m 87.142157,38.692032 c 0,5.128575 -3.859309,9.063216 -9.148187,9.063216 -5.263426,0 -9.148188,-3.934641 -9.148188,-9.063216 0,-5.128002 3.884762,-9.063217 9.148188,-9.063217 5.288878,0 9.148187,3.935215 9.148187,9.063217 z m -4.574094,0 c 0,-2.490072 -1.881353,-4.531608 -4.574093,-4.531608 -2.69332,0 -4.574094,2.041536 -4.574094,4.531608 0,2.490073 1.880774,4.531609 4.574094,4.531609 2.69274,0 4.574093,-2.041536 4.574093,-4.531609 z" />
    <path
       style="fill:#40c4c4;fill-rule:evenodd;stroke:none;stroke-width:1"
       id="Fill-4"
       d="m 97.791502,25.097207 c 4.640458,0 7.647028,2.712879 7.647028,6.797413 0,4.245577 -2.77018,6.797412 -7.647028,6.797412 l -3.216443,0 0,4.531609 -4.574094,0 0,-18.126434 7.790537,0 z m 0,9.629668 c 1.966496,0 3.072938,-1.043588 3.072938,-2.832255 0,-1.628198 -1.106442,-2.832256 -3.072938,-2.832256 l -3.216443,0 0,5.664511 3.216443,0 z" />
  </g>
</svg>
